<?xml version="1.0" encoding="UTF-8" standalone="no"?>
<!DOCTYPE svg PUBLIC "-//W3C//DTD SVG 1.1//EN" "http://www.w3.org/Graphics/SVG/1.1/DTD/svg11.dtd">
<svg width="100%" height="100%" viewBox="0 0 130 130" version="1.1" xmlns="http://www.w3.org/2000/svg" xmlns:xlink="http://www.w3.org/1999/xlink" xml:space="preserve" xmlns:serif="http://www.serif.com/" style="fill-rule:evenodd;clip-rule:evenodd;stroke-linejoin:round;stroke-miterlimit:2;">
    <g transform="matrix(1.02701,0,0,1.02101,0.863767,0.130046)">
        <g id="Layer1">
            <rect x="-0.841" y="-0.127" width="126.582" height="127.325" style="fill:rgb(51,170,221);"/>
        </g>
    </g>
    <g id="css-3-svgrepo-com.svg" transform="matrix(0.1625,0,0,0.1625,65,65)">
        <g transform="matrix(1,0,0,1,-400,-400)">
            <path d="M150,700L100,75L700,75L650,700L400,775L150,700Z" style="fill:rgb(17,114,184);fill-rule:nonzero;"/>
            <path d="M650,125L400,125L400,737.5L600,675L650,125Z" style="fill:rgb(51,170,221);fill-rule:nonzero;"/>
            <path d="M487.5,437.5L237.5,437.5L225,350L425,287.5L225,287.5L212.5,212.5L600,212.5L587.5,300L425,362.5L575,362.5L550,600L400,650L250,600L237.5,475L312.5,475L325,537.5L400,562.5L475,537.5L487.5,437.5Z" style="fill:white;fill-rule:nonzero;"/>
        </g>
    </g>
</svg>
