<?xml version="1.0" encoding="UTF-8" standalone="no"?><!DOCTYPE svg PUBLIC "-//W3C//DTD SVG 1.1//EN" "http://www.w3.org/Graphics/SVG/1.1/DTD/svg11.dtd"><svg width="100%" height="100%" viewBox="0 0 275 275" version="1.1" xmlns="http://www.w3.org/2000/svg" xmlns:xlink="http://www.w3.org/1999/xlink" xml:space="preserve" xmlns:serif="http://www.serif.com/" style="fill-rule:evenodd;clip-rule:evenodd;stroke-linejoin:round;stroke-miterlimit:2;"><g id="open"><g><path d="M161.446,60.311l23.545,10.979l-27.241,58.418l-58.418,-27.24l27.241,-58.419l23.545,10.979c-0,0 -4.803,10.299 -7.932,17.01c-0.699,1.498 -0.774,3.212 -0.208,4.765c0.565,1.553 1.724,2.818 3.222,3.517c0.011,0.005 0.022,0.01 0.033,0.015c1.498,0.699 3.212,0.773 4.765,0.208c1.553,-0.565 2.818,-1.724 3.517,-3.222c3.129,-6.711 7.931,-17.01 7.931,-17.01Z"/><path d="M185.881,83.75c3.744,-0 7.336,1.488 9.984,4.135c2.647,2.648 4.135,6.24 4.135,9.984c-0,28.614 -5,93.148 -5,121.762c-0,3.744 -1.488,7.336 -4.135,9.984c-2.648,2.647 -6.24,4.135 -9.984,4.135l-86.762,0c-3.744,0 -7.336,-1.488 -9.984,-4.135c-2.647,-2.648 -4.135,-6.24 -4.135,-9.984c-0,-28.614 -5,-93.148 -5,-121.762c0,-3.744 1.488,-7.336 4.135,-9.984c2.648,-2.647 6.24,-4.135 9.984,-4.135l96.762,-0Z"/></g><path d="M215.623,169.886l-15.848,-33.987c-2.917,-6.257 -0.211,-13.694 6.046,-16.612c6.257,-2.917 13.694,-0.21 16.612,6.047l42.262,90.63c2.917,6.257 0.21,13.694 -6.046,16.612c-6.257,2.917 -13.694,0.21 -16.612,-6.046l-15.848,-33.987c-0,0 -2.842,1.326 -5.68,2.649c-3.12,1.454 -6.829,0.105 -8.284,-3.016c-1.616,-3.467 -3.679,-7.891 -5.296,-11.358c-1.455,-3.12 -0.105,-6.829 3.015,-8.284c2.837,-1.323 5.679,-2.648 5.679,-2.648Z"/></g></svg>