<?xml version="1.0" encoding="UTF-8" standalone="no"?><!DOCTYPE svg PUBLIC "-//W3C//DTD SVG 1.1//EN" "http://www.w3.org/Graphics/SVG/1.1/DTD/svg11.dtd"><svg width="100%" height="100%" viewBox="0 0 275 275" version="1.1" xmlns="http://www.w3.org/2000/svg" xmlns:xlink="http://www.w3.org/1999/xlink" xml:space="preserve" xmlns:serif="http://www.serif.com/" style="fill-rule:evenodd;clip-rule:evenodd;stroke-linejoin:round;stroke-miterlimit:2;"><g id="closed"><g><g><path d="M185.881,83.75c3.744,-0 7.336,1.488 9.984,4.135c2.647,2.648 4.135,6.24 4.135,9.984c-0,28.614 -5,93.148 -5,121.762c-0,3.744 -1.488,7.336 -4.135,9.984c-2.648,2.647 -6.24,4.135 -9.984,4.135l-86.762,0c-3.744,0 -7.336,-1.488 -9.984,-4.135c-2.647,-2.648 -4.135,-6.24 -4.135,-9.984c-0,-28.614 -5,-93.148 -5,-121.762c0,-3.744 1.488,-7.336 4.135,-9.984c2.648,-2.647 6.24,-4.135 9.984,-4.135l96.762,-0Z"/></g><path d="M150,53.75l37.5,-0c6.904,0 12.5,5.596 12.5,12.5c-0,6.904 -5.596,12.5 -12.5,12.5l-100,-0c-6.904,-0 -12.5,-5.596 -12.5,-12.5c0,-6.904 5.596,-12.5 12.5,-12.5l37.5,-0l-0,-6.266c-0,-3.443 2.791,-6.234 6.234,-6.234c3.825,-0 8.707,-0 12.532,-0c3.443,0 6.234,2.791 6.234,6.234c-0,3.13 -0,6.266 -0,6.266Z"/></g></g></svg>