<?xml version="1.0" encoding="UTF-8" standalone="no"?><!DOCTYPE svg PUBLIC "-//W3C//DTD SVG 1.1//EN" "http://www.w3.org/Graphics/SVG/1.1/DTD/svg11.dtd"><svg width="100%" height="100%" viewBox="0 0 1042 1042" version="1.1" xmlns="http://www.w3.org/2000/svg" xmlns:xlink="http://www.w3.org/1999/xlink" xml:space="preserve" xmlns:serif="http://www.serif.com/" style="fill-rule:evenodd;clip-rule:evenodd;stroke-linejoin:round;stroke-miterlimit:2;"><rect x="-0" y="0" width="1041.67" height="1041.67" style="fill:#232323;"/><g><path d="M277.778,729.167c-0,-134.146 108.909,-243.056 243.055,-243.056c134.146,0 243.056,108.91 243.056,243.056" style="fill:#f8f489;"/><rect x="798.611" y="677.083" width="138.889" height="52.083" style="fill:#f8f489;"/><rect x="104.167" y="677.083" width="138.889" height="52.083" style="fill:#f8f489;"/><path d="M494.792,312.5l52.083,-0l-0,138.889l-52.083,-0l-0,-138.889Z" style="fill:#f8f489;"/><path d="M306.312,545.172l-26.041,45.106l-120.282,-69.445l26.042,-45.105l120.281,69.444Z" style="fill:#f8f489;"/><path d="M706.614,355.302l45.105,26.042l-69.444,120.281l-45.106,-26.042l69.445,-120.281Z" style="fill:#f8f489;"/><path d="M427.05,462.562l-45.106,26.042l-69.444,-120.281l45.105,-26.042l69.445,120.281Z" style="fill:#f8f489;"/><path d="M868.656,498.281l26.042,45.105l-120.281,69.445l-26.042,-45.106l120.281,-69.444Z" style="fill:#f8f489;"/></g></svg>