<?xml version="1.0" encoding="UTF-8" standalone="no"?>
<!DOCTYPE svg PUBLIC "-//W3C//DTD SVG 1.1//EN" "http://www.w3.org/Graphics/SVG/1.1/DTD/svg11.dtd">
<svg width="100%" height="100%" viewBox="0 0 130 130" version="1.1" xmlns="http://www.w3.org/2000/svg" xmlns:xlink="http://www.w3.org/1999/xlink" xml:space="preserve" xmlns:serif="http://www.serif.com/" style="fill-rule:evenodd;clip-rule:evenodd;stroke-linejoin:round;stroke-miterlimit:2;">
    <g transform="matrix(1.02701,0,0,1.02101,0.863767,0.130046)">
        <g id="Layer1">
            <rect x="-0.841" y="-0.127" width="126.582" height="127.325" style="fill:white;"/>
        </g>
    </g>
    <g id="php-svgrepo-com.svg" transform="matrix(0.1625,0,0,0.1625,65,65)">
        <g transform="matrix(1,0,0,1,-400,-400)">
            <circle cx="400" cy="400" r="350" style="fill:rgb(136,146,191);"/>
            <path d="M360.98,250L402.98,250L391.11,313.105L428.85,313.105C449.548,313.548 464.965,318.173 475.113,326.983C485.46,335.79 488.505,352.535 484.245,377.203L463.852,487.223L421.242,487.223L440.72,382.158C442.748,371.143 442.14,363.325 438.895,358.7C435.65,354.075 428.65,351.763 417.895,351.763L384.11,351.433L359.152,487.223L317.152,487.223L360.98,250Z" style="fill:white;fill-rule:nonzero;"/>
            <path d="M168.523,313.108L250.09,313.108C274.03,313.325 291.38,320.818 302.135,335.573C312.89,350.33 316.44,370.483 312.788,396.035C311.37,407.712 308.223,419.163 303.353,430.398C298.685,441.63 292.195,451.76 283.875,460.792C273.727,472.245 262.873,479.513 251.308,482.6C239.742,485.685 227.769,487.225 215.394,487.225L178.871,487.225L167.306,550L125,550L168.523,313.108ZM185.871,449.89L204.072,351.103L210.22,351.103C212.454,351.103 214.785,350.99 217.22,350.773C233.454,350.553 246.943,352.205 257.7,355.728C268.655,359.25 272.308,372.578 268.655,395.705C264.195,423.24 255.465,439.318 242.482,443.943C229.498,448.35 213.263,450.44 193.785,450.22L189.524,450.22C188.306,450.22 187.089,450.108 185.871,449.89Z" style="fill:white;"/>
            <path d="M610.913,313.108L529.345,313.108L485.823,550L528.127,550L539.695,487.225L576.218,487.225C588.593,487.225 600.565,485.685 612.13,482.6C623.698,479.513 634.55,472.245 644.698,460.792C653.017,451.76 659.507,441.63 664.175,430.398C669.045,419.163 672.193,407.712 673.61,396.035C677.262,370.483 673.715,350.33 662.958,335.573C652.203,320.818 634.855,313.325 610.913,313.108ZM564.895,351.103L546.695,449.89C547.913,450.108 549.13,450.22 550.348,450.22L554.608,450.22C574.088,450.44 590.32,448.35 603.305,443.943C616.287,439.318 625.017,423.24 629.48,395.705C633.132,372.578 629.48,359.25 618.523,355.728C607.768,352.205 594.278,350.553 578.043,350.773C575.608,350.99 573.278,351.103 571.043,351.103L564.895,351.103Z" style="fill:white;"/>
        </g>
    </g>
</svg>
