<?xml version="1.0" encoding="UTF-8" standalone="no"?><!DOCTYPE svg PUBLIC "-//W3C//DTD SVG 1.1//EN" "http://www.w3.org/Graphics/SVG/1.1/DTD/svg11.dtd"><svg width="100%" height="100%" viewBox="0 0 250 250" version="1.1" xmlns="http://www.w3.org/2000/svg" xmlns:xlink="http://www.w3.org/1999/xlink" xml:space="preserve" xmlns:serif="http://www.serif.com/" style="fill-rule:evenodd;clip-rule:evenodd;stroke-linejoin:round;stroke-miterlimit:2;"><path d="M100,150l-62.556,-0c-6.616,0 -12.96,-2.628 -17.638,-7.306c-4.678,-4.678 -7.306,-11.022 -7.306,-17.638l-0,-0.112c-0,-6.616 2.628,-12.96 7.306,-17.638c4.678,-4.678 11.022,-7.306 17.638,-7.306l62.556,-0l-0,-62.556c-0,-6.616 2.628,-12.96 7.306,-17.638c4.678,-4.678 11.022,-7.306 17.638,-7.306l0.112,-0c6.616,-0 12.96,2.628 17.638,7.306c4.678,4.678 7.306,11.022 7.306,17.638l-0,62.556l62.556,0c6.616,-0 12.96,2.628 17.638,7.306c4.678,4.678 7.306,11.022 7.306,17.638l0,0.112c0,6.616 -2.628,12.96 -7.306,17.638c-4.678,4.678 -11.022,7.306 -17.638,7.306l-62.556,-0l0,62.556c0,6.616 -2.628,12.96 -7.306,17.638c-4.678,4.678 -11.022,7.306 -17.638,7.306l-0.112,-0c-6.616,0 -12.96,-2.628 -17.638,-7.306c-4.678,-4.678 -7.306,-11.022 -7.306,-17.638l0,-62.556Z"/></svg>